<?xml version="1.0" encoding="UTF-8" standalone="no"?>
<!-- Created with Inkscape (http://www.inkscape.org/) -->

<svg
   width="88.612907mm"
   height="85.088707mm"
   viewBox="0 0 88.612907 85.088707"
   version="1.1"
   xmlns="http://www.w3.org/2000/svg"
   xmlns:svg="http://www.w3.org/2000/svg">
  <sodipodi:namedview
     id="namedview1559"
     pagecolor="#ffffff"
     bordercolor="#666666"
     borderopacity="1.0"
     showgrid="false"
     fit-margin-top="0"
     fit-margin-left="0"
     fit-margin-right="0"
     fit-margin-bottom="0" />
  <defs
     id="defs1554" />
  <g
     id="layer1">
    <path
       d="M 52.735403,0.05292 C 52.170958,0.12347 50.160125,0.405698 48.32568,0.72319799 46.491236,1.00542 42.751791,1.569864 40.035401,1.95792 c -2.71639,0.388056 -6.35,0.9525 -8.11389,1.234722 -1.72861,0.282223 -4.51555,0.670278 -6.17361,0.881945 -1.65806,0.246944 -3.42194,0.599722 -3.91583,0.811389 -0.49389,0.246944 -3.13973,2.8575 -5.82084,5.820833 -4.58611,5.080001 -4.97416,5.609167 -6.2088896,8.643057 -1.7991599,4.515555 -7.2319399,18.344446 -8.1491599,20.708057 -0.38806,1.058333 -0.95249995,2.116667 -1.19944995,2.328333 -0.52915998,0.458611 -0.63499998,3.915834 -0.10583,4.092223 0.21167,0.07055 1.05832995,2.116666 1.90499995,4.550833 1.69333,5.044723 1.30528,4.445 7.8669395,11.853334 16.75695,18.979446 15.38112,17.568335 18.83834,19.579168 5.22111,3.069167 4.51555,2.892778 8.36083,2.2225 5.75028,-1.023056 8.537225,-1.516944 12.594169,-2.293056 2.151945,-0.388055 4.833056,-0.881944 5.997223,-1.058333 4.586111,-0.740833 4.586111,-0.740833 16.227779,-6.879167 7.090833,-3.774723 5.679722,-1.411111 11.43,-18.767779 l 5.044723,-15.169445 -0.776111,-1.905 c -0.423334,-1.058334 -1.305278,-3.175 -1.940278,-4.727223 -0.635,-1.552222 -1.693334,-4.162778 -2.363611,-5.820833 -0.705556,-1.658056 -1.905,-4.62139 -2.751667,-6.596946 L 79.264293,17.832921 67.446237,9.013476 C 60.531792,3.827642 55.275403,0.123475 54.710958,0.05292 c -0.493889,-0.07056 -1.375833,-0.07056 -1.975555,0 z M 64.37707,11.765143 c 5.644445,4.233333 10.230556,7.9375 10.230556,8.219723 0,0.3175 -2.645833,2.681111 -5.856111,5.291667 -3.210278,2.610556 -8.325556,6.738056 -11.359445,9.207501 -3.810001,3.139722 -5.785556,4.515555 -6.385279,4.515555 -0.493888,0 -2.751666,-0.740833 -5.044722,-1.622777 -4.198058,-1.622778 -6.702778,-2.610556 -10.865558,-4.198056 -1.27,-0.493889 -3.31611,-1.27 -4.58611,-1.763889 -3.35139,-1.305278 -6.45583,-2.469445 -8.39611,-3.175 -0.9525,-0.352778 -1.79917,-0.881945 -1.905,-1.164168 -0.10583,-0.246944 0.0353,-1.622778 0.35278,-2.998611 2.43416,-10.936112 3.38666,-14.78139 3.73944,-15.169445 0.38806,-0.493889 1.79917,-0.776112 9.91306,-2.010834 2.61055,-0.388055 6.35,-0.9525 8.290276,-1.234722 1.940277,-0.3175 4.797778,-0.776111 6.35,-1.023056 5.326945,-0.881944 4.092222,-1.446389 15.522223,7.126112 z M 20.809011,12.92931 c 0,0.917222 -2.75167,13.193889 -3.28083,14.640279 -1.02306,2.751667 -10.6891695,22.013334 -11.0419495,22.013334 -0.52916,0 -1.51694,-2.434167 -1.76389,-4.374444 -0.17639,-1.164167 0.0706,-2.151945 1.27,-5.150556 0.81139,-2.046111 1.79917,-4.515556 2.15195,-5.468056 0.38805,-0.987778 0.84666,-2.081389 1.0230499,-2.469445 0.17639,-0.388055 1.1994496,-2.998611 2.2930596,-5.820834 1.09361,-2.822222 2.25778,-5.750278 2.57528,-6.526389 0.59972,-1.411111 5.82083,-7.584723 6.45583,-7.584723 0.17639,0 0.3175,0.3175 0.3175,0.740834 z m 55.985838,9.560278 c 0.176389,0.246944 0.670277,1.411111 1.128889,2.575278 0.423333,1.164167 0.987777,2.575278 1.234722,3.175001 0.846667,1.905 1.375833,3.139722 1.975556,4.7625 0.352777,0.881944 1.164166,2.963333 1.869722,4.621389 l 1.234722,3.069167 -1.058333,3.280833 c -0.564445,1.834445 -1.27,3.880556 -1.481667,4.550834 -0.917222,2.504722 -1.340556,3.739444 -1.799167,5.291667 -0.458611,1.5875 -0.9525,3.033889 -1.799166,5.291667 -0.246945,0.670277 -0.881945,2.645833 -1.411112,4.339167 -0.529166,1.728611 -1.199444,3.386666 -1.516944,3.739444 -0.458611,0.529167 -1.728611,0.740834 -6.385278,1.199445 -9.419168,0.9525 -11.183057,1.058333 -11.394723,0.740833 -0.105834,-0.176389 -0.529167,-2.398889 -0.917223,-4.903611 -0.423333,-2.54 -1.305277,-7.937501 -2.010833,-11.994445 -0.670278,-4.092223 -1.27,-8.325556 -1.305278,-9.489723 l -0.07055,-2.046111 3.527778,-2.892778 c 10.406945,-8.537223 19.367501,-15.73389 19.579167,-15.73389 0.141112,0 0.423334,0.211666 0.599723,0.423333 z m -48.577508,10.33639 c 2.43417,0.917222 5.22112,1.975556 6.17362,2.363611 0.98777,0.388056 2.25777,0.846667 2.82222,1.058334 0.59972,0.176388 2.50472,0.917222 4.23333,1.5875 1.763891,0.670278 3.810002,1.446389 4.586114,1.763889 0.776111,0.282222 2.116666,0.846666 2.998611,1.27 l 1.552222,0.776111 0.811389,4.7625 c 2.892778,17.391945 3.280834,19.790834 3.351389,21.695835 l 0.105834,1.763888 -2.469445,0.740834 c -2.434167,0.740833 -6.632223,1.940278 -16.051394,4.515556 -2.61055,0.740833 -5.36222,1.552222 -6.10305,1.799166 -0.74084,0.282223 -1.5875,0.388056 -1.86972,0.282223 -0.3175,-0.105834 -2.08139,-1.975556 -3.95112,-4.162778 -1.86972,-2.151945 -6.27944,-7.126112 -9.77194,-11.077223 -3.4925,-3.951112 -6.5616695,-7.514167 -6.8438895,-7.937501 -0.49389,-0.776111 -0.14111,-1.552222 5.2211095,-12.417778 3.175,-6.385278 5.92667,-11.712223 6.13834,-11.818056 0.35277,-0.246945 1.12888,0 9.06638,3.033889 z m 41.380841,38.064724 c -0.03528,0.282222 -1.975556,1.375834 -8.219723,4.621389 -1.5875,0.846667 -3.351389,1.27 -10.936112,2.645834 -2.2225,0.388055 -5.150556,0.9525 -6.526389,1.234722 -8.501947,1.658056 -9.242777,1.763889 -10.618617,1.023056 -2.8575,-1.516945 -3.03388,-1.446389 10.795006,-5.25639 5.715,-1.552222 7.514167,-2.046111 10.724445,-2.998611 1.305278,-0.388055 3.210278,-0.705555 4.233333,-0.740833 0.987778,0 3.316112,-0.246945 5.150556,-0.493889 3.739445,-0.493889 5.503334,-0.529167 5.397501,-0.03528 z"
       id="path30"
       style="stroke-width:0.0352778" />
    <path
       d="m 43.598458,8.343198 c -2.857497,1.164167 -4.797777,3.104445 -4.797777,4.833056 0,1.234722 1.34055,3.563056 2.29305,4.021667 0.70556,0.3175 1.05834,0.246944 2.116671,-0.458611 1.375834,-0.9525 1.481667,-1.375834 0.670278,-2.610556 -1.904999,-2.892778 3.4925,-4.691945 5.926667,-1.975556 1.128889,1.27 1.27,2.575278 0.458611,5.185834 -0.282222,0.9525 -0.529167,2.8575 -0.529167,4.233334 0,2.681111 0.846667,4.868333 2.504723,6.350001 0.705555,0.635 0.776111,0.635 1.799167,0.03528 2.328333,-1.340557 11.218334,-8.078613 11.218334,-8.537224 0,-0.564444 -2.222501,-2.293056 -2.963334,-2.293056 -0.282222,0 -1.975556,1.023056 -3.704167,2.293056 -1.763889,1.27 -3.421944,2.293056 -3.739444,2.293056 -0.670278,0 -0.705556,-1.340556 0,-3.986389 1.058333,-4.021667 0.493888,-6.244167 -2.010834,-8.078612 C 50.054291,7.567089 46.702902,7.0732 43.598458,8.3432 Z"
       id="path32"
       style="stroke-width:0.0352778" />
    <path
       d="m 31.780401,15.222365 c -0.98778,0.811389 -1.05833,1.058334 -0.88194,2.293056 0.21166,1.27 0.14111,1.481667 -1.41112,2.963334 -0.88194,0.881944 -1.62277,1.763888 -1.62277,1.940277 0,0.352778 1.41111,1.763889 1.72861,1.763889 0.10583,0 1.09361,-0.564444 2.15194,-1.234722 1.05834,-0.670278 2.15195,-1.234722 2.46945,-1.234722 0.28222,0 3.06916,2.54 6.17361,5.644445 3.104443,3.104445 5.926666,5.644445 6.244166,5.644445 0.352778,0 1.27,-0.423334 2.010833,-0.987778 1.622778,-1.093611 1.869723,-2.2225 0.705556,-3.033889 C 48.925402,28.698478 46.879291,26.828755 44.83318,24.817921 35.308181,15.575143 33.932341,14.305143 33.403181,14.305143 c -0.28222,0 -1.02306,0.423333 -1.62278,0.917222 z"
       id="path34"
       style="stroke-width:0.0352778" />
  </g>
</svg>
