<?xml version="1.0" encoding="UTF-8" standalone="no"?>
<!-- Created with Inkscape (http://www.inkscape.org/) -->

<svg
   width="87.840866mm"
   height="85.505775mm"
   viewBox="0 0 87.840866 85.505775"
   version="1.1"
   xmlns="http://www.w3.org/2000/svg"
   xmlns:svg="http://www.w3.org/2000/svg">
  <sodipodi:namedview
     id="namedview1713"
     pagecolor="#ffffff"
     bordercolor="#666666"
     borderopacity="1.0"
     showgrid="false"
     fit-margin-top="0"
     fit-margin-left="0"
     fit-margin-right="0"
     fit-margin-bottom="0" />
  <defs
     id="defs1708" />
  <g
     id="layer1">
    <path
       d="M 16.579759,16.05139 C 7.7603093,24.870835 0.42252932,32.10278 0.28141932,32.10278 c -0.45861,0 -0.3175,3.457222 0.14111,3.598333 0.21167,0.07056 0.67027998,0.917223 0.98777998,1.905 1.27,3.739445 6.49111,19.050002 8.9958297,26.423058 1.48167,4.268611 3.21028,9.454445 3.88056,11.500556 0.70556,2.081389 1.51694,3.986389 1.86972,4.303889 0.59972,0.529167 2.71639,0.9525 11.35945,2.151945 2.2225,0.3175 5.715,0.846666 7.76111,1.128889 2.04611,0.282222 5.04472,0.670278 6.70278,0.881944 1.62278,0.176389 3.28083,0.423334 3.70416,0.493889 1.94028,0.458611 8.74889,1.164167 9.27806,0.987778 0.70556,-0.282222 0.59972,-0.176389 18.87361,-16.121946 12.91167,-11.253611 14.00528,-12.311945 14.00528,-13.335 0,-1.023056 -0.74083,-3.739445 -1.94028,-6.985001 -0.91722,-2.575278 -1.30527,-3.739444 -1.76389,-5.291667 -0.45861,-1.552222 -0.88194,-2.8575 -1.79916,-5.291667 -0.56445,-1.552222 -1.51695,-4.445 -1.905,-5.820833 -0.28222,-0.987778 -2.01084,-6.138334 -2.82222,-8.466668 -0.21167,-0.599722 -0.77612,-2.328333 -1.27,-3.880555 -0.49389,-1.552223 -1.12889,-3.35139 -1.41112,-3.98639 -0.28222,-0.635 -0.49388,-1.340555 -0.49388,-1.552222 0,-0.246944 -0.31751,-1.093611 -0.70556,-1.905 -0.70556,-1.411111 -0.88195,-1.516945 -3.81,-2.434167 -1.69333,-0.4938888 -3.70417,-1.1288889 -4.48028,-1.3758333 -1.41111,-0.4586112 -5.04472,-1.5522223 -8.46667,-2.5047224 -0.9525,-0.2822222 -2.78694,-0.8466667 -4.05694,-1.1994445 -4.30389,-1.3052779 -9.70139,-2.9280558 -12.17083,-3.6336114 -1.34056,-0.3880555 -3.10445,-0.9525 -3.88056,-1.1994445 C 36.053089,0.2116667 34.818369,0 34.042259,0 c -1.37584,0 -1.69334,0.2822222 -17.4625,16.05139 z M 35.488649,5.2563892 c 0.28222,0.2822223 4.65666,2.575278 12.77055,6.7380558 1.97556,1.023056 3.59834,2.010834 3.59834,2.151945 0,0.176389 0.3175,0.3175 0.67027,0.3175 0.38806,0 1.62278,0.529167 2.75167,1.199444 2.2225,1.27 10.51278,5.644445 14.32278,7.514167 1.30528,0.635001 2.36361,1.375834 2.36361,1.622778 0,0.3175 -1.37583,0.846667 -3.77472,1.481667 -2.11667,0.529167 -4.83306,1.27 -6.10306,1.5875 -1.27,0.352778 -4.51555,1.199445 -7.23194,1.940278 -8.78417,2.328334 -9.8425,2.610556 -11.99445,3.175 -10.37167,2.8575 -14.9225,3.915834 -15.24,3.563056 -0.21167,-0.211667 0.38806,-3.527778 1.83445,-9.913056 0.3175,-1.375834 0.84666,-3.915834 1.23472,-5.644445 0.38805,-1.763889 0.91722,-4.198056 1.19944,-5.468056 0.28222,-1.27 0.88195,-3.880556 1.27,-5.8208335 0.98778,-4.5155558 1.37584,-5.291667 2.32834,-4.4450003 z m 15.66333,3.7394447 c 2.43417,0.7408334 5.11528,1.5522221 5.99722,1.7991671 0.88195,0.246944 2.71639,0.811389 4.05695,1.199444 1.37583,0.423334 3.31611,0.987778 4.30389,1.27 1.02305,0.282223 2.54,0.811389 3.35139,1.164167 1.48166,0.635 1.55222,0.740833 2.50472,3.739445 1.16416,3.563055 0.98778,4.303889 -0.84667,3.245555 -2.04611,-1.164166 -10.33639,-5.538611 -19.72028,-10.371667 -4.37444,-2.2930556 -5.64444,-3.0338889 -5.64444,-3.4219445 0,-0.3880556 0.59972,-0.2469445 5.99722,1.3758334 z M 31.396419,8.2902783 c 0,0.1763889 -0.21166,1.128889 -1.62277,7.0555557 -0.24695,1.164167 -1.05834,4.727223 -1.72862,7.937501 -1.16416,5.432778 -1.94027,8.89 -2.71638,12.100278 -0.17639,0.740834 -0.56445,1.446389 -0.84667,1.552223 -0.56445,0.211666 -0.88195,0.141111 -10.01889,-1.834445 -2.99861,-0.670278 -5.9972197,-1.305278 -6.6322197,-1.411111 -0.635,-0.141111 -1.27,-0.493889 -1.37584,-0.776111 -0.14111,-0.352778 3.6336097,-4.374445 11.9238897,-12.664723 10.58334,-10.5833343 13.0175,-12.8058344 13.0175,-11.9591677 z m 42.47445,19.7908347 c 0,0.564444 -0.35278,2.2225 -0.77611,3.668889 -0.38806,1.446389 -1.48167,5.503334 -2.36361,8.995834 -1.62278,6.244167 -2.36361,9.172223 -4.23334,16.227779 -0.49388,1.940278 -1.55222,5.997222 -2.32833,8.995834 -1.83444,7.161389 -2.04611,7.761111 -2.61055,7.761111 -0.24695,0 -1.30528,-0.917222 -2.32834,-2.046111 -1.05833,-1.128889 -8.39611,-8.784167 -16.36889,-16.968612 -7.9375,-8.184445 -14.46389,-15.063612 -14.46389,-15.275279 0,-0.423333 1.41111,-0.846667 11.99445,-3.633611 4.09222,-1.058334 8.36083,-2.187223 9.525,-2.504723 1.16416,-0.3175 2.92805,-0.811389 3.88055,-1.058333 0.98778,-0.246945 2.89278,-0.776111 4.23334,-1.128889 1.37583,-0.388056 4.7625,-1.27 7.58472,-2.010833 2.82222,-0.705556 5.67972,-1.516945 6.35,-1.763889 1.62278,-0.599723 1.94028,-0.493889 1.905,0.740833 z m 2.2225,4.797778 c 0.17639,0.246944 1.55222,4.268611 3.06917,8.925278 1.51694,4.656667 2.96333,8.995834 3.24555,9.666112 0.28223,0.635 0.59973,1.834445 0.70556,2.681111 l 0.21167,1.481667 -5.57389,4.903611 c -3.10445,2.681112 -6.91445,6.032501 -8.53723,7.443612 -2.54,2.2225 -3.95111,3.069167 -3.95111,2.363611 0,-0.105833 0.56445,-2.363611 1.27,-5.009444 0.70556,-2.645834 1.72861,-6.596945 2.25778,-8.713612 0.56444,-2.151945 1.65806,-6.420556 2.46944,-9.525001 0.81139,-3.104444 1.94028,-7.478889 2.50473,-9.701389 1.19944,-4.797778 1.27,-4.938889 1.65805,-4.938889 0.17639,0 0.49389,0.211666 0.67028,0.423333 z M 8.0425293,35.806947 c 1.09361,0.282222 4.6213897,1.093611 7.8316697,1.763889 3.21028,0.705555 6.38528,1.375833 7.05556,1.516944 1.5875,0.352778 1.5875,0.458611 -0.14111,8.713612 -1.30528,6.138334 -4.79778,23.177501 -4.79778,23.35389 0,0.07056 -0.14111,0.105834 -0.28223,0.105834 -0.17638,0 -0.56444,-0.599723 -0.88194,-1.340556 -0.56444,-1.305278 -3.88056,-10.936112 -4.48028,-12.946945 -0.17639,-0.599723 -1.27,-3.845278 -2.4694397,-7.231945 -1.19945,-3.386667 -2.29306,-6.667501 -2.46945,-7.231945 -0.17639,-0.599722 -0.70555,-2.2225 -1.23472,-3.633611 -0.81139,-2.293056 -0.9525,-3.598334 -0.35278,-3.598334 0.10584,0 1.09361,0.246944 2.2225,0.529167 z M 32.842809,47.51917 c 3.21028,3.280833 9.59556,9.807222 14.21695,14.569723 4.62139,4.7625 9.27805,9.489723 10.30111,10.512778 1.05833,1.058334 1.905,2.081389 1.905,2.328334 0,0.352778 -1.97556,0.529166 -8.53722,0.705555 -4.72723,0.105834 -13.54667,0.388056 -19.64973,0.599723 -7.72583,0.246944 -11.14778,0.282222 -11.43,0 -0.52916,-0.529167 -0.38805,-1.199445 4.33917,-24.024169 0.77611,-3.774722 1.51694,-7.373056 1.62278,-7.9375 0.42333,-2.363611 0.52916,-2.645834 0.98778,-2.645834 0.24694,0 3.06916,2.645834 6.24416,5.89139 z m 24.13,30.480002 c 0.3175,0.458611 -0.52916,1.375833 -2.32833,2.610555 l -1.37583,0.9525 -3.24556,-0.529166 c -1.79917,-0.3175 -4.62139,-0.740834 -6.27944,-0.9525 -5.57389,-0.705556 -8.50195,-1.234723 -8.5725,-1.5875 -0.0353,-0.211667 3.28083,-0.423334 8.92527,-0.529167 4.93889,-0.105834 9.80723,-0.246945 10.83028,-0.282222 0.98778,-0.03528 1.94028,0.105833 2.04611,0.3175 z"
       id="path48"
       style="stroke-width:0.0352778" />
    <path
       d="m 46.636419,14.252223 c -0.67027,0.211667 -1.48166,0.811389 -1.86972,1.27 -0.77611,1.058334 -0.88194,3.210278 -0.14111,4.515556 0.28222,0.529167 0.81139,1.693333 1.19945,2.575278 1.02305,2.328333 3.45722,4.903611 4.97416,5.221111 2.01084,0.423334 3.77472,0.07056 4.97417,-1.058333 1.05833,-0.987778 1.09361,-1.128889 0.91722,-2.998611 -0.24694,-2.328334 -1.48167,-4.938889 -3.52778,-7.47889 -0.98777,-1.199444 -1.76389,-1.834444 -2.25777,-1.834444 -0.42334,0 -0.88195,-0.176389 -0.98778,-0.352778 -0.28222,-0.458611 -1.83445,-0.388056 -3.28084,0.141111 z m 4.33917,3.457223 c 1.5875,1.869722 3.10445,5.679722 2.75167,6.985 -0.14111,0.529167 -0.49389,0.705556 -1.34056,0.705556 -0.9525,0 -1.37583,-0.282223 -2.18722,-1.340556 -1.30528,-1.622778 -2.46944,-4.056945 -2.75167,-5.750278 -0.21166,-1.093611 -0.10583,-1.375834 0.56445,-1.834445 0.9525,-0.670278 1.5875,-0.388055 2.96333,1.234723 z"
       id="path50"
       style="stroke-width:0.0352778" />
    <path
       d="m 35.806149,16.651112 c -1.55223,0.529167 -2.61056,1.658056 -2.8575,2.963334 -0.24695,1.340555 0.35277,2.610555 1.19944,2.610555 0.88194,0 2.25778,-1.058333 2.04611,-1.5875 -0.28222,-0.811389 0.81139,-1.940278 1.905,-1.940278 1.16417,0 2.46945,1.411112 2.46945,2.610556 0,0.423333 -0.88195,2.010834 -1.94028,3.563056 -1.76389,2.504722 -1.94028,2.928056 -1.94028,4.656667 0,2.434167 0.3175,2.54 4.02167,1.552222 7.16139,-1.940278 7.16139,-1.940278 6.73805,-3.210278 -0.28222,-0.917222 -1.69333,-1.234722 -2.96333,-0.705555 -3.52778,1.446389 -4.7625,0.881944 -2.96333,-1.340556 1.37583,-1.693333 2.08139,-3.139722 2.32833,-4.691945 0.17639,-1.164167 0.0353,-1.446389 -1.27,-2.716389 -2.18722,-2.151944 -4.19806,-2.645833 -6.77333,-1.763889 z"
       id="path52"
       style="stroke-width:0.0352778" />
  </g>
</svg>
