<svg width="304.519" height="354.848" viewBox="0 0 80.571 93.887" xmlns="http://www.w3.org/2000/svg"><path d="M28.456 6.703c-4.833 3.704-10.9 8.255-13.44 10.125C2.138 26.388.445 27.728.127 28.575c-.494 1.305.564 33.937 1.094 34.82.211.317 6.738 5.15 9.948 7.372.564.388 3.14 2.223 5.644 4.022 2.54 1.834 7.444 5.362 10.936 7.902 3.493 2.505 8.22 5.892 10.513 7.514 2.258 1.623 4.128 3.105 4.128 3.316 0 .918 1.658.071 3.95-2.116a561.98 561.98 0 015.08-4.657c1.412-1.235 5.998-5.433 10.231-9.313 4.234-3.88 9.843-9.031 12.489-11.395 2.61-2.399 4.903-4.621 5.044-4.904.494-.811 1.623-30.127 1.341-34.007-.035-.67-3.598-3.105-13.794-9.49-2.61-1.623-5.644-3.563-10.23-6.526-7.126-4.587-8.89-5.715-10.407-6.703C40.133.564 39.145 0 38.228 0c-.67.035-3.422 1.905-9.772 6.703zm10.866-1.376c.423.247 2.363 1.446 4.303 2.716 7.127 4.586 11.43 7.338 14.994 9.596 2.857 1.8 5.503 3.492 11.818 7.55 1.552 1.022 3.245 2.116 3.81 2.434.529.352.952.846.952 1.093 0 .459-2.928 3.105-21.343 19.085-4.833 4.234-9.172 7.973-9.596 8.361-.987.917-1.446.741-5.15-1.94-1.693-1.2-3.81-2.716-4.727-3.351-.953-.635-3.21-2.258-5.045-3.563-1.834-1.306-4.374-3.105-5.644-3.952-7.127-4.974-17.18-12.1-17.71-12.558-.317-.283-.494-.741-.388-1.024.07-.246 1.94-1.799 4.092-3.421 2.187-1.588 9.455-7.091 16.228-12.171 6.738-5.08 12.347-9.243 12.453-9.243.106 0 .53.176.953.388zM75.905 39.37c-.177 3.669-.353 9.031-.353 11.96 0 2.892-.106 5.855-.212 6.56-.211 1.13-1.446 2.4-11.183 11.29-6.032 5.503-12.7 11.641-14.852 13.617-2.152 2.01-4.127 3.634-4.339 3.634-.353 0-.459-2.964-.459-13.723V58.949l2.576-2.258c1.376-1.27 5.891-5.185 9.948-8.713 4.092-3.528 9.63-8.361 12.347-10.76 5.257-4.55 6.174-5.221 6.632-4.798.142.141.106 3.246-.105 6.95zM6.972 34.325c.952.67 3.704 2.61 6.138 4.304a603.965 603.965 0 007.056 4.94c1.446 1.022 6.95 4.867 12.17 8.572l9.526 6.702.176 13.618c.106 7.478.141 13.793.07 13.97-.282.776-1.375.247-5.15-2.505-5.292-3.81-14.993-10.795-16.087-11.571-7.337-5.15-14.146-10.196-14.887-11.007l-.988-1.023v-5.927c0-3.245-.176-9.207-.352-13.229-.212-4.021-.283-7.479-.177-7.655.353-.565.706-.423 2.505.811z"/><path d="M32.83 19.05c-1.975 1.023-4.056 3.634-4.339 5.327-.67 4.092 1.8 8.184 7.726 12.982 7.585 6.103 14.217 6.103 17.286 0 1.13-2.152 1.13-3.95 0-6.456-2.152-4.833-7.831-7.937-12.03-6.561-2.54.846-3.915 2.363-4.868 5.397-.317 1.023-1.27.565-2.575-1.305-1.552-2.258-1.552-3.704-.035-4.974.882-.741 1.34-.882 2.257-.706.953.177 1.376 0 2.4-.917.705-.6 1.27-1.376 1.27-1.764 0-1.658-4.657-2.328-7.092-1.023zm12.595 10.266c3.774 1.799 5.185 5.292 2.928 7.161-.635.53-1.517.917-2.117.917-2.575 0-5.962-2.928-5.962-5.15 0-1.588.459-2.47 1.693-3.105 1.27-.705 1.694-.705 3.458.177z"/></svg>