<?xml version="1.0" encoding="UTF-8" standalone="no"?>
<!-- Created with Inkscape (http://www.inkscape.org/) -->

<svg
   width="87.480675mm"
   height="85.044205mm"
   viewBox="0 0 87.480675 85.044205"
   version="1.1"
   xmlns="http://www.w3.org/2000/svg"
   xmlns:svg="http://www.w3.org/2000/svg">
  <sodipodi:namedview
     id="namedview1878"
     pagecolor="#ffffff"
     bordercolor="#666666"
     borderopacity="1.0"
     showgrid="false"
     fit-margin-top="0"
     fit-margin-left="0"
     fit-margin-right="0"
     fit-margin-bottom="0" />
  <defs
     id="defs1873" />
  <g
     id="layer1">
    <path
       d="m 26.520671,1.0958633 c -0.388055,0.635 -1.763889,3.210278 -3.069167,5.750278 -1.305277,2.504722 -3.280833,6.3147227 -4.409722,8.4666667 -1.093611,2.116667 -3.245556,6.244167 -4.7625,9.172223 -1.516945,2.892778 -3.563056,6.879167 -4.5861117,8.819445 -1.023055,1.940278 -3.4924999,6.702778 -5.4680556,10.583334 -2.0108335,3.880556 -3.77472251,7.090834 -3.91583361,7.161389 -0.3880556,0.141112 -0.4233333,3.245556 -0.035278,3.245556 0.1411112,0 1.76388901,2.151945 3.59833361,4.833056 3.1397224,4.515553 3.4572226,4.868333 5.2916676,5.644443 3.1044437,1.37584 3.2808327,1.44639 5.1152777,2.15195 0.987778,0.38805 3.210278,1.27 4.938889,1.97555 1.763889,0.74084 3.81,1.55222 4.586111,1.86972 0.776111,0.28223 1.905,0.74084 2.469445,0.98778 0.599722,0.24695 1.763889,0.74084 2.645833,1.09361 0.881945,0.35278 2.222501,0.88195 2.998612,1.19945 0.776111,0.3175 2.116666,0.84666 2.998611,1.19944 0.881944,0.35278 2.081389,0.84667 2.645833,1.09361 0.599723,0.24695 1.693334,0.70556 2.469445,0.98778 0.776111,0.3175 2.8575,1.12889 4.586112,1.86972 1.763889,0.70556 3.986389,1.5875 4.938889,1.97556 0.987778,0.35278 2.081389,0.81139 2.469444,0.98778 2.328334,1.02305 3.986389,1.65805 4.868334,1.86972 0.529167,0.14111 0.9525,0.42333 0.9525,0.59972 0,0.21167 0.670278,0.35278 1.516945,0.35278 1.799166,0 0.670277,1.83444 9.313333,-15.16945 3.421945,-6.70277 7.902223,-15.522219 9.983612,-19.579163 2.081389,-4.092223 4.797778,-9.348612 5.997223,-11.747501 1.199444,-2.363611 2.328333,-4.303889 2.504722,-4.303889 0.176389,0 0.3175,-0.493889 0.3175,-1.058334 0,-0.599722 -0.141111,-1.058333 -0.282222,-1.058333 -0.176389,0 -1.622778,-2.187223 -3.245556,-4.868334 -2.751667,-4.480278 -3.951111,-6.0325 -4.691945,-6.067778 -0.176388,0 -0.811388,-0.211667 -1.411111,-0.493889 -0.635,-0.282222 -3.986389,-1.728611 -7.478889,-3.210278 -3.4925,-1.481667 -6.667501,-2.822222 -7.055556,-2.998611 -1.869722,-0.811389 -3.563056,-1.516945 -7.937501,-3.351389 -4.621389,-1.9049997 -5.503333,-2.2930557 -8.113889,-3.4572227 -0.670278,-0.282222 -3.386667,-1.446389 -5.997223,-2.54 -2.610555,-1.093611 -5.08,-2.116667 -5.468056,-2.293056 -7.549444,-3.28083298 -8.219722,-3.42194398 -9.278056,-1.693333 z m 5.150556,4.162778 c 0.3175,0.176389 1.164167,0.564444 1.834445,0.846667 4.339167,1.799167 10.936112,4.5861107 11.818056,4.9741667 0.599722,0.282222 2.504722,1.058333 4.233334,1.763889 4.7625,1.975555 4.868333,2.187222 1.658055,3.139722 -4.303889,1.27 -5.503333,3.633611 -3.986389,8.008056 1.552223,4.550834 4.198056,8.43139 6.84389,9.948334 3.598333,2.116667 8.89,0.423334 10.16,-3.175 0.917222,-2.716389 -1.905,-8.960556 -5.538611,-12.347223 -1.552223,-1.446389 -1.869723,-1.905 -1.446389,-2.081389 0.3175,-0.105833 1.023055,0.03528 1.552222,0.352778 0.529167,0.282222 3.139722,1.411111 5.750278,2.504722 4.656667,1.940278 6.173612,2.575278 8.290279,3.527778 0.599722,0.246945 1.658055,0.705556 2.398889,1.023056 0.705555,0.3175 1.305277,0.776111 1.305277,1.093611 0,0.282222 -1.164166,2.010833 -2.54,3.845278 -1.411111,1.834444 -4.303889,5.644445 -6.455834,8.466667 -2.328333,3.069167 -4.198055,5.221112 -4.656666,5.362223 -0.458612,0.105833 -2.116667,0.03528 -3.704167,-0.176389 -3.210278,-0.388056 -8.184445,-1.023056 -18.59139,-2.328334 -3.774723,-0.458611 -6.985001,-0.987778 -7.196668,-1.199444 -0.176388,-0.176389 -0.458611,-1.728611 -0.635,-3.457223 -0.176388,-1.693333 -0.564444,-5.432778 -0.846666,-8.325556 -0.282223,-2.8575 -0.776111,-7.62 -1.093611,-10.583334 -0.282223,-2.928055 -0.670278,-6.6322217 -0.846667,-8.1844447 -0.176389,-1.552222 -0.211667,-2.928055 -0.141111,-3.069167 0.246944,-0.388055 1.093611,-0.352777 1.834444,0.07056 z m -3.139722,8.3608337 c 0.529167,5.432778 1.658055,16.404168 2.151944,20.602223 0.670278,5.785556 1.446389,4.480278 -8.149167,13.581946 -5.221111,4.974167 -8.819445,8.113889 -9.313334,8.184445 -0.458611,0.07055 -1.516944,-0.176389 -2.363611,-0.564445 -0.846667,-0.352778 -2.2224997,-0.917222 -3.1044447,-1.27 C 4.4015036,52.813088 4.1192814,52.425033 5.1776148,50.520033 5.5656703,49.779199 7.0826149,46.886421 8.5642813,44.064199 10.01067,41.241977 12.268448,36.867532 13.573726,34.36281 c 1.305278,-2.540001 3.457223,-6.667501 4.7625,-9.172223 1.305278,-2.54 3.175001,-6.103056 4.162778,-7.972779 0.987778,-1.869722 2.434167,-4.691944 3.245556,-6.314722 1.905,-3.7394447 2.187223,-3.4572227 2.786945,2.716389 z m 27.551946,2.081389 c 0,0.352778 -0.246944,0.493889 -0.776111,0.423333 -1.128889,-0.176389 -1.234722,-0.987778 -0.141111,-0.987778 0.599722,0 0.917222,0.176389 0.917222,0.564445 z m -0.529167,4.445 c 1.481667,1.728611 3.351389,4.974167 4.233334,7.408334 0.564444,1.552222 0.564444,1.728611 0.03528,2.575278 -1.199445,1.834444 -3.457223,1.375833 -5.362223,-1.128889 -1.481667,-1.940278 -4.021667,-7.161389 -4.021667,-8.255001 0,-1.340555 0.881945,-2.081389 2.469445,-2.081389 1.164167,0 1.552222,0.211667 2.645833,1.481667 z m 25.11778,9.172223 c 2.328333,3.951111 2.293055,3.81 1.199444,5.961945 -11.782778,23.142223 -15.028334,29.527502 -17.074445,33.584442 -2.892778,5.82084 -3.386667,5.92667 -2.751667,0.70556 0.211667,-1.905 0.635,-5.92667 0.917222,-8.925278 0.3175,-2.998612 0.776111,-7.831668 1.058334,-10.689168 0.282222,-2.8575 0.705555,-5.538611 0.917222,-5.961945 0.352778,-0.670277 11.394723,-15.240001 12.841112,-16.968612 0.282222,-0.3175 0.670278,-0.599722 0.846666,-0.599722 0.176389,0 1.093612,1.305278 2.046112,2.892778 z M 42.325117,42.265032 c 6.632222,0.846667 11.888612,1.481667 15.628056,1.940278 2.081389,0.246945 3.951112,0.599722 4.162778,0.811389 0.246945,0.246945 0.246945,1.446389 0,3.845278 -0.211666,1.940278 -0.635,6.0325 -0.917222,9.136945 -0.3175,3.104445 -0.776111,7.796392 -1.058333,10.406942 -0.282223,2.61056 -0.599723,6.0325 -0.705556,7.58473 -0.282222,3.70416 -0.458611,4.40972 -1.023056,4.40972 -0.846666,0 -5.3975,-2.04611 -9.031111,-4.09222 -9.771945,-5.43278 -29.174724,-16.192505 -31.044447,-17.180283 -1.27,-0.705556 -2.328333,-1.481667 -2.398889,-1.763889 -0.105833,-0.529167 15.73389,-15.769168 16.756946,-16.157223 0.3175,-0.105834 1.834444,0 3.421945,0.246944 1.552222,0.211667 4.374444,0.599723 6.208889,0.811389 z m -31.326669,15.41639 c 1.5875,0.670278 4.268612,2.010834 5.926667,2.928056 4.586112,2.610556 10.97139,6.103056 12.453057,6.808616 0.705555,0.35277 1.305277,0.77611 1.305277,0.9525 0,0.17638 0.388056,0.42333 0.881945,0.52916 0.493889,0.14111 0.881944,0.38806 0.881944,0.56445 0,0.45861 -0.9525,0.45861 -1.234722,0.0353 -0.105833,-0.17638 -0.670278,-0.42333 -1.234722,-0.56444 -0.599722,-0.14111 -2.363611,-0.77611 -3.986389,-1.44639 -3.139723,-1.34055 -6.738056,-2.82222 -9.771945,-4.02167 -5.57389,-2.151941 -6.4205557,-2.681107 -7.8316677,-4.762496 -0.740833,-1.023056 -1.3405552,-1.975556 -1.3405552,-2.081389 0,-0.458611 1.1288892,-0.141111 3.9511109,1.058333 z"
       id="path36"
       style="stroke-width:0.0352778" />
    <path
       d="m 41.090395,19.616697 c -0.917223,0.211667 -1.587501,1.093612 -1.587501,2.081389 0,0.811389 -1.5875,2.39889 -2.8575,2.786945 -0.529166,0.176389 -0.670278,0.493889 -0.599722,1.164167 0.141111,1.199444 1.27,1.411111 3.175,0.564444 1.058334,-0.458611 1.446389,-0.529166 1.799167,-0.176389 0.211667,0.211667 1.5875,3.139723 3.069167,6.491112 2.610556,5.961945 2.681111,6.067778 3.704167,5.961945 1.340555,-0.141111 2.998611,-1.023056 2.998611,-1.5875 0,-0.246945 -0.282222,-1.093612 -0.670278,-1.869723 -2.010833,-4.233333 -4.056945,-8.501945 -5.644445,-11.888612 -0.987777,-2.081389 -1.975555,-3.739444 -2.2225,-3.739444 -0.246944,0.03528 -0.776111,0.105833 -1.164166,0.211666 z"
       id="path38"
       style="stroke-width:0.0352778" />
  </g>
</svg>
