<svg width="312.966" height="353.304" viewBox="0 0 82.806 93.478" xmlns="http://www.w3.org/2000/svg"><path d="M32.352.6c-.635.705-1.694 2.646-7.515 14.04-2.293 4.445-5.22 10.16-6.526 12.7-3.916 7.585-7.796 15.064-12.17 23.636-2.294 4.445-4.622 8.96-5.187 10.02-.529 1.058-.987 2.222-.952 2.645 0 .423 4.798 7.232 10.654 15.205 11.112 15.063 11.289 15.24 13.088 14.323.423-.212 13.264-5.398 28.575-11.5 15.31-6.14 28.363-11.396 29.033-11.713 1.412-.67 1.835-1.94 1.094-3.21-.53-.847-2.646-3.81-21.731-30.41a4589.088 4589.088 0 01-15.699-21.872C34.856.282 34.645 0 33.692 0c-.423 0-1.058.282-1.34.6zm12.664 21.096c12.171 16.968 27.376 38.17 30.163 42.051 1.164 1.587 2.01 3.034 1.905 3.21-.247.388-52.74 21.379-52.952 21.167-.106-.07 0-1.411.176-2.963.212-1.517.635-4.692.918-7.02.493-4.093 1.023-8.185 2.08-16.864 1.306-10.336 1.624-12.982 1.941-15.769.212-1.658.494-4.127.706-5.468.176-1.376.564-4.445.882-6.879a3559.05 3559.05 0 012.116-16.757c.283-2.152.6-5.01.741-6.35.282-2.857.424-3.245 1.023-2.575.247.247 4.869 6.632 10.301 14.217zM26.672 49.318c-2.54 20.39-4.763 37.113-4.868 37.113-.283 0-3.528-4.375-11.889-15.875-2.61-3.599-4.868-6.703-5.045-6.88-.14-.211 0-.917.353-1.587.74-1.552 8.996-17.604 11.677-22.754 1.094-2.152 3.74-7.232 5.82-11.29 2.082-4.091 4.693-9.066 5.751-11.112 1.058-2.046 2.081-3.986 2.258-4.339.176-.353.388-.6.458-.529.071.07-1.975 16.828-4.515 37.253z"/><path d="M44.628 40.393c-.952.282-1.834.6-2.01.776-.142.141-1.235 4.234-2.435 9.067l-2.152 8.819.565 2.47c.317 1.34.635 2.575.74 2.716.071.141 2.258-.423 4.834-1.305 2.54-.847 4.833-1.482 5.01-1.412.21.071.81 1.588 1.375 3.352.53 1.764 1.058 3.21 1.2 3.21.282 0 3.95-1.376 4.339-1.623.14-.07-.212-1.446-.777-3.034-.564-1.622-1.023-3.14-1.023-3.386 0-.282.494-.67 1.059-.882 1.234-.459 1.27-.741.353-2.893-.706-1.658-.741-1.658-2.047-1.446-1.27.176-1.375.14-1.728-.953-.212-.6-1.411-4.022-2.61-7.585-1.2-3.527-2.364-6.42-2.576-6.385-.212 0-1.164.247-2.117.494zm1.729 10.936c.847 2.717 1.482 5.01 1.411 5.15-.212.283-5.468 1.835-5.644 1.659-.283-.282 2.116-11.924 2.398-11.818.177.035.988 2.293 1.835 5.01z"/></svg>