<?xml version="1.0" encoding="UTF-8" standalone="no"?>
<!-- Created with Inkscape (http://www.inkscape.org/) -->

<svg
   width="84.25415mm"
   height="83.082108mm"
   viewBox="0 0 84.25415 83.082108"
   version="1.1"
   xmlns="http://www.w3.org/2000/svg"
   xmlns:svg="http://www.w3.org/2000/svg">
  <sodipodi:namedview
     id="namedview1924"
     pagecolor="#ffffff"
     bordercolor="#666666"
     borderopacity="1.0"
     showgrid="false"
     fit-margin-top="0"
     fit-margin-left="0"
     fit-margin-right="0"
     fit-margin-bottom="0" />
  <defs
     id="defs1919" />
  <g
     id="layer1">
    <path
       d="m 19.50862,0.36745514 c -0.45861,0.3175 -1.02306,1.48166696 -1.51695,3.06916696 -0.42333,1.411111 -0.98778,3.210278 -1.23472,3.986389 -0.24695,0.776111 -0.81139,2.6105559 -1.23472,4.0569449 -0.42334,1.446389 -0.98778,3.280833 -1.23473,4.056945 -0.24694,0.776111 -0.9525,3.069166 -1.5875,5.115278 -0.59972,2.046111 -1.30527,4.339167 -1.55222,5.115278 -0.24694,0.776111 -0.81139,2.610556 -1.27,4.056944 C 9.45445,31.27079 8.89,33.105235 8.64306,33.881346 8.39612,34.657457 7.69056,36.879957 7.12612,38.820235 4.83306,46.404958 2.92806,52.613847 1.76389,56.212181 1.37584,57.411625 1.05834,58.646348 1.05834,58.92857 c 0,0.3175 -0.24695,0.635 -0.52917,0.740833 C 0.17639,59.810514 0,60.410237 0,61.574403 v 1.658056 l 4.69195,1.481667 c 2.54,0.846667 5.29167,1.728611 6.06778,1.975556 0.77611,0.246944 3.06916,0.9525 5.11527,1.5875 2.04612,0.635 4.33917,1.340555 5.11528,1.5875 0.77611,0.246944 3.31611,1.058333 5.64445,1.763889 2.32833,0.705555 4.86833,1.516944 5.64444,1.763889 0.77611,0.246944 3.31611,1.058333 5.64445,1.763889 2.32833,0.705555 4.93889,1.516944 5.820831,1.799166 0.881945,0.282223 3.033889,0.952501 4.7625,1.516945 1.763889,0.564445 4.374445,1.375833 5.820834,1.799167 1.446389,0.458611 4.021667,1.27 5.715,1.834444 4.374445,1.411112 5.080001,1.340556 5.926667,-0.529166 0.352778,-0.811389 1.023056,-2.681112 1.411112,-4.127501 0.423333,-1.446389 1.234722,-4.162778 1.763889,-5.997222 0.564444,-1.834445 1.5875,-5.256389 2.293055,-7.584723 0.705556,-2.328333 1.728612,-5.750278 2.293056,-7.584723 0.529167,-1.834444 1.340556,-4.550833 1.763889,-5.997222 0.423333,-1.446389 0.987778,-3.280834 1.234722,-4.056945 0.246945,-0.776111 0.740834,-2.363611 1.058334,-3.527778 0.352778,-1.164167 0.811389,-2.751667 1.058333,-3.527778 0.246945,-0.776111 0.811389,-2.610556 1.234722,-4.056945 0.423334,-1.446389 0.987778,-3.280833 1.234723,-4.056944 0.246944,-0.776111 0.705555,-2.293056 0.987778,-3.351389 0.3175,-1.058334 0.917222,-2.998612 1.305277,-4.268612 0.423334,-1.27 0.705556,-2.786944 0.635,-3.351389 -0.141111,-1.234722 -1.27,-1.869722 -5.221111,-2.963333 -1.446389,-0.423334 -3.280834,-0.9525 -4.056945,-1.199445 -1.622778,-0.529166 -4.1275,-1.27 -7.9375,-2.328333 C 65.581397,13.173289 63.746952,12.608845 62.970841,12.3619 62.19473,12.114956 60.60723,11.656345 59.443063,11.303567 58.278896,10.986067 56.691396,10.492178 55.915285,10.245234 55.139174,9.9982891 53.234174,9.4338447 51.681952,9.0105113 50.129729,8.5871779 48.224729,8.0227331 47.448618,7.7757891 46.672507,7.5288441 45.085007,7.0349561 43.92084,6.7174551 c -1.16417,-0.352777 -2.82222,-0.846666 -3.70417,-1.093611 -0.88194,-0.246944 -2.68111,-0.811389 -4.05694,-1.199444 -1.34056,-0.388056 -3.175,-0.9525 -4.05695,-1.199445 -0.88194,-0.282222 -2.54,-0.776111 -3.70416,-1.093611 -1.16417,-0.352778 -2.99861,-0.917222 -4.05695,-1.23472196 -3.24555,-1.023056 -3.98639,-1.128889 -4.83305,-0.529167 z m 8.89,5.82083396 c 1.37583,0.388055 3.175,0.9525 4.05694,1.199444 0.88195,0.282223 2.54,0.776111 3.70417,1.0936115 2.11667,0.635 4.02167,1.1994445 7.12611,2.1166664 0.9525,0.282223 2.822222,0.846667 4.162778,1.234723 1.375833,0.423333 3.175,0.9525 4.056945,1.199444 0.881944,0.282223 3.033889,0.917223 4.7625,1.411111 1.763889,0.493889 3.880556,1.128889 4.7625,1.411112 0.881945,0.282222 2.786945,0.846666 4.233334,1.27 1.446389,0.423333 3.033889,0.881944 3.527778,1.058333 0.493889,0.141111 2.081389,0.635 3.527778,1.058334 4.198056,1.234722 5.644445,1.799166 5.644445,2.2225 0,0.246944 -9.948334,6.279445 -22.083891,13.476112 -12.170834,7.161389 -22.613057,13.370278 -23.283337,13.758334 -0.77611,0.493889 -1.27,0.599722 -1.51694,0.352777 -0.21167,-0.211666 -0.77611,-2.434166 -1.23472,-4.938889 -0.49389,-2.54 -1.12889,-5.785556 -1.44639,-7.231945 -0.28223,-1.446389 -1.09361,-5.503333 -1.76389,-8.995833 -0.67028,-3.492501 -1.48167,-7.549445 -1.76389,-8.995834 -1.62278,-8.078612 -2.39889,-11.8886119 -2.54,-12.5941679 -0.10583,-0.458611 -0.10583,-1.023055 0,-1.305278 0.21167,-0.564444 0.14111,-0.564444 6.06778,1.199445 z m -6.13834,9.7013889 c 1.12889,5.856112 3.28084,16.792224 5.50334,27.97528 0.70555,3.704167 1.12889,6.596945 0.9525,6.738056 -0.17639,0.141111 -1.83445,0.846667 -3.66889,1.552222 -1.83445,0.705556 -4.86834,1.834445 -6.70278,2.54 -7.23195,2.716389 -9.06639,3.421945 -10.68917,4.092223 -1.905,0.811389 -2.92805,0.670278 -2.54,-0.3175 0.24695,-0.564445 0.56445,-1.516945 1.72861,-5.538612 0.28223,-0.987778 1.09361,-3.598333 1.79917,-5.820833 1.27,-4.021667 2.18722,-6.985001 3.175,-10.406946 0.3175,-0.987777 0.77611,-2.469444 1.02306,-3.351389 0.9525,-3.069166 1.69333,-5.468055 2.15194,-7.055555 0.28222,-0.881945 1.05833,-3.421945 1.76389,-5.644445 0.70555,-2.2225 1.65805,-5.503334 2.15194,-7.231945 0.49389,-1.763889 0.98778,-3.386667 1.05834,-3.6688893 0.42333,-1.3405557 1.27,0.9172223 2.29305,6.1383333 z m 56.656118,9.771946 c -0.282223,0.811388 -0.811389,2.469444 -1.128889,3.633611 -0.352778,1.164166 -0.811389,2.751667 -1.058334,3.527778 -0.246944,0.776111 -0.811389,2.610555 -1.234722,4.056944 -0.423333,1.446389 -0.987778,3.280834 -1.234722,4.056945 -0.246945,0.776111 -0.705556,2.363611 -1.058334,3.527778 -0.3175,1.164167 -0.811389,2.751667 -1.058333,3.527778 -0.246945,0.776111 -0.811389,2.610556 -1.234722,4.056945 -0.423334,1.446389 -0.9525,3.280833 -1.199445,4.056944 -0.246944,0.776112 -0.705556,2.293056 -1.023056,3.35139 -1.975555,6.632222 -3.210278,10.830278 -4.1275,13.758334 -0.599722,1.869722 -1.058333,3.633611 -1.058333,3.951111 0,0.282222 -0.211667,0.740834 -0.493889,0.9525 -0.564445,0.458611 -0.105833,0.846667 -14.322779,-11.782778 -4.374445,-3.880556 -9.80722,-8.713612 -12.10028,-10.724445 -2.36361,-2.081389 -4.1275,-3.880556 -4.05694,-4.162778 0.14111,-0.705556 46.249167,-27.97528 46.637222,-27.622502 0.141111,0.176389 0.07056,0.9525 -0.246944,1.834445 z M 36.40667,58.046625 c 3.175,2.822223 8.46667,7.514168 11.747503,10.406945 7.866945,6.949723 8.995834,8.043334 8.255001,8.219723 -0.3175,0.03528 -1.516945,-0.211666 -2.645833,-0.564444 C 51.505563,75.368015 45.155562,73.357182 39.8639,71.734404 38.02945,71.16996 35.87751,70.499682 35.10139,70.21746 34.32528,69.970515 32.49084,69.406071 31.04445,68.982737 29.59806,68.559404 27.83417,67.994959 27.16389,67.748015 26.49362,67.50107 24.72973,66.936626 23.28334,66.513293 18.83834,65.172737 17.18028,64.678848 15.875,64.220237 15.20473,63.973292 13.44084,63.408848 11.99445,62.985515 7.05556,61.539126 6.73806,61.15107 9.73667,60.057459 c 2.29306,-0.846667 3.21028,-1.164167 10.01889,-3.774723 3.21028,-1.199444 6.59695,-2.504722 7.54945,-2.8575 0.9525,-0.352778 1.79916,-0.705555 1.86972,-0.811389 0.42333,-0.423333 1.83444,0.670278 7.23194,5.432778 z"
       id="path40"
       style="stroke-width:0.0352778" />
    <path
       d="m 37.11223,13.596623 c -3.175,1.446389 -4.65667,3.210278 -4.65667,5.503333 0,1.199445 0.24695,1.728612 1.41111,3.03389 1.34056,1.552222 2.29306,2.116666 4.33917,2.54 0.88194,0.211666 0.9525,0.352777 0.9525,2.116666 0,1.622778 0.17639,2.151945 1.16417,3.457223 3.386663,4.445 8.572497,5.009445 13.723053,1.552222 2.469444,-1.658056 3.139722,-5.08 1.481667,-7.584722 C 54.363063,22.451346 52.528618,21.216623 50.059174,20.47579 48.118896,19.946623 48.04834,19.876068 47.871951,18.464956 47.625007,16.701067 46.813618,15.536901 44.838062,14.125789 42.86251,12.749956 39.44056,12.503012 37.11223,13.596623 Z m 5.64444,4.1275 c 1.411114,1.340556 1.340559,2.716389 -0.14111,3.633611 -0.635,0.388056 -1.44639,0.705556 -1.79916,0.705556 -1.79917,0 -4.02167,-2.2225 -3.59834,-3.563056 0.14111,-0.388055 0.74084,-1.023055 1.34056,-1.411111 1.41111,-0.881945 2.8575,-0.635 4.19805,0.635 z m 6.24417,6.455834 c 1.622778,0.811389 2.998612,2.822222 2.681112,3.880556 -0.388056,1.199444 -1.905001,2.116666 -3.563056,2.116666 -1.27,0 -1.728611,-0.211666 -2.963334,-1.340555 -1.905,-1.869723 -1.940278,-3.210278 -0.105833,-4.480278 1.5875,-1.058334 2.187222,-1.093612 3.951111,-0.176389 z"
       id="path42"
       style="stroke-width:0.0352778" />
  </g>
</svg>
